Showtimes serie "The Borgias" är sagan om den legendariska familjen Borgia. Serien utspelar sig i 1400-talets Italien, där den korrupta påven Alexander VI (Jeremy Irons) begår synd på synd för att behålla makt och inflytande och skapa rikedomar för sig själv och sin familj. Denna kriminella familj gav inspiration till såväl Machiavellis "Fursten" som Mario Puzos "Gudfadern". Ett påkostat drama från Oscarsvinnaren Neil Jordan.

General
Format                                   : Matroska
Format version                           : Version 2
File size                                : 1.16 GiB
Duration                                 : 50mn 40s
Overall bit rate                         : 3 271 Kbps
Encoded date                             : UTC 2013-04-15 06:23:30
Writing application                      : mkvmerge v2.7.0 ('Do It Again') built on Jul  2 2010 16:49:42
Writing library                          : libebml v0.7.7 + libmatroska v0.8.1

Video
ID                                       : 1
Format                                   : AVC
Format/Info                              : Advanced Video Codec
Format profile                           : High@L4.1
Format settings, CABAC                   : Yes
Format settings, ReFrames                : 5 frames
Codec ID                                 : V_MPEG4/ISO/AVC
Duration                                 : 50mn 40s
Bit rate                                 : 2 822 Kbps
Width                                    : 1 278 pixels
Height                                   : 720 pixels
Display aspect ratio                     : 16:9
Frame rate mode                          : Constant
Frame rate                               : 23.976 fps
Color space                              : YUV
Chroma subsampling                       : 4:2:0
Bit depth                                : 8 bits
Scan type                                : Progressive
Bits/(Pixel*Frame)                       : 0.128
Stream size                              : 1 023 MiB (86%)
Writing library                          : x264 core 130 r2273 b3065e6
Language                                 : English
Default                                  : Yes
Forced                                   : No
Matrix coefficients                      : BT.709

Audio
ID                                       : 2
Format                                   : AC-3
Format/Info                              : Audio Coding 3
Mode extension                           : CM (complete main)
Format settings, Endianness              : Big
Codec ID                                 : A_AC3
Duration                                 : 50mn 40s
Bit rate mode                            : Constant
Bit rate                                 : 384 Kbps
Channel(s)                               : 6 channels
Channel positions                        : Front: L C R, Side: L R, LFE
Sampling rate                            : 48.0 KHz
Bit depth                                : 16 bits
Compression mode                         : Lossy
Stream size                              : 139 MiB (12%)
Default                                  : Yes
Forced                                   : No

Release date: N/A
Street date: N/A

Oversattaresida: www.swesub.nu
Oversattare: SSG - SweSUB Group Macchiavelli och Simontax 
Synkare: N/A

Kalla: The.Borgias.S03E02.720p.HDTV.x264-2HD 
 
http://bayimg.com/eaNhNaAEc 
http://bayimg.com/EAnHpaAEc 
http://bayimg.com/FAnHaAaeC 
http://bayimg.com/fANHbAaEc
